<?xml version="1.0" encoding="iso-8859-1"?>
<!-- Generator: Adobe Illustrator 19.0.0, SVG Export Plug-In . SVG Version: 6.00 Build 0)  -->
<svg version="1.1" id="Capa_1" xmlns="http://www.w3.org/2000/svg" xmlns:xlink="http://www.w3.org/1999/xlink" x="0px" y="0px"
	 viewBox="0 0 512.001 512.001" style="enable-background:new 0 0 512.001 512.001;" xml:space="preserve">
<path style="fill:#92E0C0;" d="M434.139,228.803L434.139,228.803c-8.89-39.348-28.703-75.473-57.926-104.696
	C335.469,83.363,281.146,60.85,223.497,60.85l0,0l0,0c-57.601,0-111.938,22.479-152.717,63.256
	c-29.223,29.223-49.036,65.347-57.926,104.696l0,0c-0.401,1.003-5.33,22.71-5.33,48.02c0,57.689,22.465,111.924,63.256,152.716
	c40.792,40.792,95.027,63.257,152.717,63.257l0,0l0,0c57.688,0,111.924-22.465,152.716-63.257
	c40.792-40.791,63.257-95.027,63.257-152.716C439.469,250.707,434.67,231.594,434.139,228.803z"/>
<path style="fill:#6DC296;" d="M90.846,429.539C50.055,388.747,27.59,334.511,27.59,276.823c0-24.645,4.849-46.816,5.33-48.02l0,0
	c8.89-39.349,28.703-75.473,57.926-104.696c39.47-39.469,90.593-60.754,142.684-63.007c-1.551-0.067-4.971-0.25-10.033-0.25l0,0
	c-57.601,0-111.938,22.479-152.717,63.256c-29.223,29.223-49.036,65.347-57.926,104.696l0,0c-0.401,1.003-5.33,22.71-5.33,48.02
	c0,57.689,22.465,111.924,63.256,152.716c40.792,40.792,95.027,63.257,152.717,63.257l0,0c3.357,0,6.701-0.084,10.033-0.236
	C179.609,490.112,129.264,467.957,90.846,429.539z"/>
<path style="fill:#FFFFFF;" d="M133.288,124.791L133.288,124.791c27.667-16.478,58.809-24.798,90.208-24.798
	c1.85,0,3.692,0.038,5.528,0.095c0.531,0.016,1.06,0.039,1.589,0.06c29.523,1.176,57.876,9.625,83.09,24.644l0,0
	c53.427,31.821,86.623,89.352,86.623,152.032c0,97.49-79.311,176.831-176.831,176.831S46.664,374.314,46.664,276.824
	C46.665,214.805,79.292,156.951,133.288,124.791z"/>
<path style="fill:#E4EAF8;" d="M66.732,276.823c0-62.34,32.9-120.034,86.623-152.032l0,0c22.961-13.676,49.284-22.315,77.449-24.335
	c0.489-0.035,0.981-0.062,1.471-0.093c0.417-0.026,0.837-0.041,1.255-0.065c-0.971-0.054-1.941-0.111-2.916-0.15
	c-0.529-0.021-1.059-0.044-1.589-0.06c-1.837-0.057-3.678-0.095-5.528-0.095c-31.853,0-62.918,8.545-90.208,24.799l0,0
	c-52.113,31.039-86.624,87.852-86.624,152.032c0,97.483,79.304,176.831,176.831,176.831c3.368,0,6.711-0.103,10.033-0.29
	C140.681,448.144,66.732,370.972,66.732,276.823z"/>
<path style="fill:#FFC850;" d="M469.836,40.981l-0.004-0.006c-2.288-1.625-17.918-15.291-43.587-19.736
	c-1.88-0.449-9.802-1.444-16.67-1.444c-59.246,0-104.742,53.214-94.958,112.146c0,0,0,0,0.001,0.001
	c0,1.06,5.356,41.77,44.196,65.93c1.297,0.807,2.454,1.833,3.42,3.017c37.125,45.496,33.936,41.679,35.195,42.938
	c9.98,9.991,15.58,8.661,25.372-1.13c27.262-33.411,22.262-27.283,33.717-41.321c1.243-1.523,2.737-2.82,4.4-3.868
	C516.86,162.191,521.338,82.386,469.836,40.981z M409.568,183.338c-38.114,0-69.011-30.898-69.011-69.012
	s30.898-69.012,69.011-69.012c38.114,0,69.012,30.898,69.012,69.012S447.682,183.338,409.568,183.338z"/>
<path style="fill:#FF9052;" d="M417.483,243.828c-1.259-1.259,1.93,2.558-35.195-42.938c-0.967-1.184-2.122-2.21-3.42-3.017
	c-38.84-24.16-44.196-64.871-44.196-65.93c-0.001-0.001-0.001-0.001-0.001-0.001c-9.22-55.534,30.653-105.983,84.857-111.617
	c-3.023-0.294-6.611-0.529-9.953-0.529c-59.245,0-104.742,53.214-94.958,112.146c0,0,0,0,0.001,0.001
	c0,1.06,5.356,41.77,44.196,65.93c1.297,0.807,2.454,1.833,3.42,3.017c37.125,45.496,33.936,41.679,35.195,42.938
	c8.816,8.825,14.215,8.813,22.103,1.942C418.869,245.176,418.188,244.534,417.483,243.828z"/>
<circle style="fill:#C3C8D1;" cx="223.498" cy="276.822" r="48.58"/>
<path style="fill:#B0B3B7;" d="M194.982,276.823c0-23.391,16.532-42.915,38.547-47.538c-3.238-0.68-6.593-1.043-10.033-1.043
	c-26.831,0-48.581,21.75-48.581,48.581s21.75,48.581,48.581,48.581c3.44,0,6.795-0.363,10.033-1.043
	C211.514,319.738,194.982,300.214,194.982,276.823z"/>
<path style="fill:#FEA82F;" d="M243.563,256.757L203.43,296.89l0,0l-47.528-84.049c-1.323-2.338,1.273-4.934,3.612-3.612
	L243.563,256.757z"/>
<path style="fill:#FF8031;" d="M191.039,227.057l-31.526-17.828c-2.338-1.323-4.934,1.273-3.612,3.612l47.528,84.049l17.31-17.31
	L191.039,227.057z"/>
<path style="fill:#6DC296;" d="M243.563,256.757L203.43,296.89l0,0l84.227,47.628c2.288,1.294,4.829-1.246,3.534-3.534
	L243.563,256.757z"/>
<path style="fill:#5FA77E;" d="M273.233,309.228l-52.47-29.67l-17.333,17.333l84.227,47.628c2.288,1.294,4.828-1.245,3.534-3.534
	L273.233,309.228z"/>
<g>
	<path style="fill:#474D54;" d="M196.87,300.572l0.011,0.02c0.008,0.014,0.016,0.028,0.024,0.042
		c0.026,0.046,0.053,0.091,0.08,0.137c0.012,0.019,0.024,0.038,0.036,0.058c0.026,0.042,0.052,0.084,0.079,0.126
		c0.013,0.02,0.027,0.041,0.04,0.061c0.026,0.04,0.052,0.079,0.079,0.119c0.015,0.022,0.03,0.043,0.045,0.065
		c0.026,0.037,0.051,0.074,0.078,0.11c0.017,0.024,0.035,0.047,0.053,0.071c0.025,0.034,0.05,0.067,0.076,0.101
		c0.019,0.024,0.038,0.048,0.057,0.072c0.025,0.032,0.051,0.064,0.076,0.096c0.021,0.026,0.042,0.051,0.063,0.076
		c0.024,0.029,0.049,0.058,0.074,0.087c0.023,0.026,0.046,0.052,0.069,0.078c0.025,0.028,0.049,0.055,0.074,0.082
		c0.023,0.025,0.047,0.05,0.07,0.075c0.026,0.027,0.052,0.055,0.078,0.082c0.023,0.024,0.047,0.048,0.071,0.071
		c0.027,0.027,0.054,0.055,0.082,0.081c0.023,0.023,0.047,0.045,0.071,0.068c0.028,0.027,0.056,0.053,0.085,0.079
		c0.025,0.023,0.05,0.045,0.075,0.067c0.028,0.025,0.057,0.051,0.086,0.076c0.025,0.022,0.051,0.043,0.076,0.065
		c0.03,0.025,0.059,0.05,0.089,0.074c0.026,0.021,0.053,0.042,0.079,0.063c0.029,0.023,0.058,0.046,0.087,0.069
		c0.028,0.022,0.057,0.043,0.085,0.064c0.029,0.022,0.058,0.044,0.088,0.065c0.03,0.022,0.061,0.043,0.091,0.065
		c0.027,0.019,0.054,0.038,0.082,0.057c0.034,0.023,0.069,0.046,0.103,0.069c0.026,0.017,0.051,0.034,0.077,0.051
		c0.038,0.024,0.076,0.048,0.114,0.071c0.022,0.014,0.044,0.028,0.067,0.041c0.043,0.026,0.086,0.051,0.13,0.076
		c0.016,0.009,0.031,0.019,0.047,0.028l0.023,0.013l0.009,0.005l92.328,52.21c1.159,0.655,2.434,0.975,3.699,0.975
		c1.946,0,3.872-0.755,5.32-2.202c2.389-2.389,2.892-6.079,1.228-9.019l-52.206-92.322c-0.006-0.01-0.011-0.02-0.017-0.03
		l-0.005-0.009c-0.004-0.007-0.008-0.014-0.012-0.021c-0.031-0.054-0.062-0.108-0.094-0.161c-0.008-0.013-0.016-0.026-0.024-0.039
		c-0.03-0.048-0.06-0.097-0.09-0.144c-0.01-0.015-0.02-0.03-0.03-0.045c-0.029-0.045-0.059-0.089-0.089-0.133
		c-0.013-0.019-0.026-0.037-0.039-0.056c-0.028-0.04-0.055-0.079-0.084-0.118c-0.016-0.022-0.032-0.044-0.049-0.065
		c-0.026-0.036-0.053-0.071-0.08-0.106c-0.017-0.022-0.035-0.045-0.053-0.067c-0.027-0.034-0.054-0.068-0.081-0.101
		c-0.019-0.024-0.039-0.047-0.059-0.07c-0.026-0.031-0.052-0.062-0.078-0.092c-0.022-0.025-0.044-0.05-0.066-0.075
		c-0.025-0.028-0.05-0.057-0.076-0.085c-0.023-0.025-0.046-0.049-0.069-0.073c-0.027-0.028-0.053-0.057-0.08-0.084
		c-0.022-0.022-0.044-0.044-0.066-0.066c-0.029-0.029-0.058-0.058-0.087-0.087c-0.022-0.021-0.043-0.041-0.065-0.062
		c-0.03-0.028-0.06-0.057-0.09-0.085c-0.024-0.022-0.048-0.043-0.072-0.065c-0.029-0.026-0.058-0.052-0.087-0.077
		c-0.025-0.022-0.051-0.043-0.076-0.065c-0.03-0.025-0.059-0.05-0.089-0.074c-0.026-0.021-0.053-0.042-0.079-0.063
		c-0.029-0.023-0.058-0.046-0.087-0.069c-0.028-0.022-0.057-0.043-0.085-0.064c-0.029-0.022-0.058-0.044-0.088-0.065
		c-0.03-0.022-0.061-0.043-0.091-0.065c-0.027-0.019-0.054-0.038-0.082-0.057c-0.034-0.023-0.069-0.046-0.103-0.069
		c-0.026-0.017-0.051-0.034-0.077-0.051c-0.038-0.024-0.076-0.048-0.114-0.071c-0.022-0.014-0.044-0.028-0.067-0.041
		c-0.043-0.026-0.086-0.051-0.13-0.076c-0.016-0.009-0.031-0.019-0.047-0.028l-0.023-0.013c-0.003-0.002-0.006-0.004-0.009-0.005
		l-92.328-52.209c-2.943-1.662-6.63-1.16-9.019,1.228c-2.389,2.389-2.892,6.079-1.228,9.019l52.209,92.326
		C196.865,300.562,196.868,300.567,196.87,300.572z M215.739,295.212l26.143-26.143l34.023,60.167L215.739,295.212z
		 M231.248,258.434l-26.143,26.143l-34.023-60.166L231.248,258.434z"/>
	<path style="fill:#474D54;" d="M215.973,226.643c0,4.154,3.367,7.52,7.52,7.52s7.52-3.366,7.52-7.52v-44.225
		c0-4.154-3.367-7.52-7.52-7.52s-7.52,3.366-7.52,7.52V226.643z"/>
	<path style="fill:#474D54;" d="M223.493,319.485c-4.153,0-7.52,3.366-7.52,7.52v44.225c0,4.154,3.367,7.52,7.52,7.52
		s7.52-3.366,7.52-7.52v-44.225C231.013,322.852,227.646,319.485,223.493,319.485z"/>
	<path style="fill:#474D54;" d="M129.085,269.303c-4.153,0-7.52,3.366-7.52,7.52s3.367,7.52,7.52,7.52h44.225
		c4.153,0,7.52-3.366,7.52-7.52s-3.367-7.52-7.52-7.52H129.085z"/>
	<path style="fill:#474D54;" d="M317.901,284.343c4.153,0,7.52-3.366,7.52-7.52s-3.367-7.52-7.52-7.52h-44.226
		c-4.153,0-7.52,3.366-7.52,7.52s3.367,7.52,7.52,7.52H317.901z"/>
	<path style="fill:#474D54;" d="M223.493,122.085c4.153,0,7.52-3.366,7.52-7.52V99.993c0-4.154-3.367-7.52-7.52-7.52
		s-7.52,3.366-7.52,7.52v14.572C215.973,118.719,219.34,122.085,223.493,122.085z"/>
	<path style="fill:#474D54;" d="M223.493,431.562c-4.153,0-7.52,3.366-7.52,7.52v14.572c0,4.154,3.367,7.52,7.52,7.52
		s7.52-3.366,7.52-7.52v-14.572C231.013,434.928,227.646,431.562,223.493,431.562z"/>
	<path style="fill:#474D54;" d="M46.663,269.303c-4.153,0-7.52,3.366-7.52,7.52s3.367,7.52,7.52,7.52h14.573
		c4.153,0,7.52-3.366,7.52-7.52s-3.367-7.52-7.52-7.52H46.663z"/>
	<path style="fill:#474D54;" d="M400.323,284.343c4.153,0,7.52-3.366,7.52-7.52s-3.367-7.52-7.52-7.52h-14.572
		c-4.153,0-7.52,3.366-7.52,7.52s3.367,7.52,7.52,7.52H400.323z"/>
	<path style="fill:#474D54;" d="M409.565,37.795c-35.456,0-65.358,24.236-74.009,57.012c-0.002,0.006-0.003,0.011-0.005,0.017
		c-0.011,0.041-0.021,0.081-0.031,0.122c-0.039,0.149-0.078,0.3-0.116,0.449c-0.004,0.015-0.008,0.031-0.012,0.046
		c-1.393,5.468-2.196,11.169-2.335,17.031c0,0.002,0,0.005,0,0.007c-0.004,0.181-0.008,0.364-0.011,0.546
		c-0.001,0.047-0.002,0.094-0.002,0.142c-0.002,0.145-0.004,0.29-0.005,0.435c0,0.051-0.001,0.102-0.001,0.153
		c-0.001,0.19-0.002,0.38-0.002,0.571c0,2.473,0.118,4.918,0.348,7.332c0.031,0.322,0.063,0.643,0.098,0.964
		c0.156,1.443,0.353,2.874,0.589,4.291c0.052,0.315,0.106,0.63,0.162,0.944c0.056,0.314,0.114,0.627,0.174,0.94
		c0.06,0.313,0.122,0.625,0.186,0.936c0.127,0.623,0.263,1.241,0.405,1.858c0.214,0.924,0.445,1.844,0.692,2.755
		c0.082,0.304,0.166,0.608,0.253,0.909c0.086,0.303,0.174,0.605,0.264,0.905c0.045,0.15,0.09,0.301,0.136,0.451
		c0.412,1.351,0.86,2.685,1.344,4.004c0.054,0.146,0.108,0.293,0.162,0.439c10.591,28.33,37.515,48.757,69.254,49.766
		c0.327,0.01,0.655,0.019,0.984,0.025c0.328,0.006,0.657,0.01,0.986,0.012c0.164,0.001,0.329,0.002,0.494,0.002
		c42.199,0,76.532-34.332,76.532-76.531S451.765,37.795,409.565,37.795z M348.076,113.815c0-0.04,0.001-0.081,0.001-0.121
		c0.002-0.168,0.004-0.337,0.007-0.506v-0.001c0.021-1.139,0.073-2.277,0.157-3.411c7.979,5.986,15.566,12.566,22.65,19.651
		c13.856,13.856,25.59,29.386,34.986,46.282c-2.003-0.119-3.982-0.335-5.93-0.642c-0.011-0.002-0.022-0.003-0.033-0.005
		c-0.1-0.016-0.201-0.032-0.301-0.048c-0.027-0.004-0.053-0.009-0.08-0.013c-0.093-0.015-0.187-0.031-0.28-0.047
		c-0.03-0.005-0.061-0.01-0.091-0.015c-0.089-0.015-0.177-0.031-0.267-0.046c-0.037-0.006-0.073-0.013-0.11-0.019
		c-0.084-0.015-0.168-0.03-0.254-0.045c-0.038-0.007-0.076-0.014-0.114-0.021c-0.083-0.015-0.167-0.031-0.251-0.047
		c-0.042-0.008-0.085-0.016-0.127-0.024c-0.077-0.015-0.153-0.029-0.231-0.044c-0.044-0.009-0.089-0.017-0.133-0.026
		c-0.08-0.016-0.161-0.032-0.242-0.048c-0.044-0.009-0.087-0.018-0.131-0.026c-0.073-0.015-0.145-0.03-0.219-0.045
		c-0.053-0.011-0.106-0.022-0.16-0.033c-0.068-0.014-0.135-0.028-0.204-0.043c-0.056-0.012-0.112-0.024-0.168-0.036
		c-0.066-0.014-0.132-0.029-0.199-0.043c-0.056-0.012-0.113-0.025-0.169-0.037c-0.062-0.014-0.123-0.027-0.185-0.041
		c-0.062-0.014-0.124-0.028-0.186-0.042c-0.063-0.014-0.125-0.029-0.188-0.043c-0.057-0.013-0.115-0.027-0.172-0.04
		c-0.061-0.014-0.122-0.029-0.184-0.044c-0.064-0.015-0.128-0.031-0.193-0.046c-0.057-0.014-0.113-0.027-0.17-0.041
		c-0.063-0.016-0.126-0.031-0.191-0.047c-0.058-0.014-0.116-0.029-0.173-0.043c-0.072-0.018-0.144-0.037-0.217-0.055
		c-0.045-0.012-0.091-0.023-0.136-0.035c-0.083-0.021-0.166-0.043-0.25-0.065c-0.037-0.01-0.073-0.019-0.11-0.029
		c-0.089-0.024-0.179-0.048-0.269-0.072c-0.031-0.008-0.062-0.016-0.092-0.025c-0.109-0.03-0.219-0.06-0.328-0.09
		c-0.009-0.003-0.019-0.005-0.028-0.008c-0.607-0.168-1.209-0.346-1.808-0.532c-0.011-0.004-0.023-0.007-0.034-0.011
		c-0.23-0.071-0.458-0.144-0.686-0.219c-0.008-0.003-0.015-0.005-0.023-0.007c-0.112-0.037-0.226-0.074-0.338-0.111
		c-0.004-0.001-0.009-0.003-0.013-0.004c-0.112-0.037-0.225-0.075-0.336-0.112c-0.014-0.005-0.027-0.009-0.041-0.014
		c-0.103-0.035-0.208-0.071-0.311-0.106c-0.017-0.006-0.034-0.012-0.05-0.018c-0.101-0.035-0.204-0.07-0.305-0.106
		c-0.015-0.005-0.029-0.01-0.044-0.016c-0.105-0.037-0.212-0.075-0.317-0.113c-0.009-0.003-0.019-0.007-0.028-0.01
		c-0.103-0.037-0.207-0.075-0.31-0.112l-0.06-0.022c-0.101-0.037-0.203-0.074-0.303-0.112c-0.011-0.004-0.021-0.008-0.032-0.012
		c-0.108-0.04-0.216-0.081-0.323-0.122c-0.007-0.003-0.015-0.005-0.022-0.008c-0.107-0.041-0.215-0.082-0.322-0.123l-0.034-0.013
		c-0.109-0.042-0.218-0.085-0.326-0.127c-0.004-0.001-0.007-0.003-0.011-0.004c-14.769-5.836-26.755-17.231-33.365-31.593
		c-0.001-0.002-0.002-0.004-0.003-0.007c-0.05-0.109-0.1-0.22-0.15-0.33c-0.002-0.005-0.004-0.009-0.006-0.014
		c-0.049-0.108-0.098-0.218-0.146-0.327c-0.002-0.004-0.004-0.009-0.006-0.013c-0.047-0.105-0.093-0.21-0.139-0.315
		c-0.006-0.014-0.012-0.027-0.018-0.041c-0.044-0.102-0.089-0.205-0.133-0.307c-0.004-0.009-0.008-0.019-0.012-0.028
		c-0.046-0.108-0.093-0.217-0.138-0.325c-0.002-0.004-0.003-0.008-0.005-0.012c-0.045-0.107-0.09-0.215-0.135-0.322
		c-0.004-0.01-0.009-0.021-0.013-0.031c-0.042-0.101-0.084-0.203-0.125-0.304c-0.006-0.015-0.013-0.03-0.019-0.046
		c-0.043-0.104-0.085-0.209-0.127-0.314c-0.003-0.009-0.007-0.017-0.01-0.026c-0.045-0.111-0.089-0.223-0.133-0.334
		c-0.001-0.003-0.002-0.006-0.003-0.009c-0.504-1.276-0.967-2.574-1.387-3.89c-0.004-0.014-0.009-0.028-0.013-0.041
		c-0.033-0.105-0.067-0.211-0.099-0.317c-0.005-0.016-0.01-0.032-0.015-0.048c-0.031-0.101-0.063-0.203-0.094-0.305
		c-0.008-0.028-0.017-0.055-0.025-0.083c-0.027-0.089-0.054-0.177-0.08-0.267c-0.011-0.036-0.021-0.072-0.032-0.107
		c-0.025-0.086-0.051-0.172-0.076-0.259c-0.009-0.03-0.018-0.06-0.026-0.09c-0.026-0.09-0.052-0.181-0.078-0.272
		c-0.008-0.028-0.016-0.056-0.024-0.084c-0.026-0.093-0.052-0.186-0.078-0.279c-0.008-0.03-0.016-0.059-0.025-0.089
		c-0.024-0.088-0.048-0.175-0.072-0.264c-0.01-0.035-0.019-0.071-0.029-0.107c-0.023-0.084-0.045-0.167-0.067-0.252
		c-0.011-0.041-0.022-0.082-0.032-0.123c-0.021-0.079-0.041-0.157-0.062-0.237c-0.011-0.041-0.021-0.082-0.032-0.124
		c-0.021-0.082-0.042-0.164-0.063-0.247c-0.009-0.036-0.018-0.073-0.028-0.11c-0.021-0.084-0.042-0.168-0.063-0.253
		c-0.01-0.04-0.02-0.08-0.029-0.12c-0.02-0.082-0.04-0.165-0.06-0.248c-0.009-0.037-0.018-0.073-0.026-0.11
		c-0.021-0.088-0.042-0.177-0.062-0.266c-0.008-0.034-0.016-0.067-0.023-0.101c-0.02-0.084-0.039-0.169-0.058-0.255
		c-0.009-0.04-0.018-0.08-0.027-0.12c-0.018-0.079-0.035-0.158-0.053-0.239c-0.01-0.044-0.019-0.088-0.029-0.132
		c-0.018-0.083-0.036-0.166-0.054-0.251c-0.008-0.038-0.016-0.076-0.024-0.114c-0.018-0.083-0.035-0.166-0.052-0.25
		c-0.008-0.041-0.017-0.082-0.025-0.123c-0.019-0.093-0.038-0.186-0.056-0.279c-0.005-0.027-0.011-0.054-0.016-0.082
		c-0.019-0.095-0.037-0.192-0.056-0.287c-0.006-0.03-0.012-0.06-0.018-0.091c-0.02-0.106-0.04-0.213-0.06-0.319
		c-0.003-0.016-0.006-0.032-0.009-0.047c-0.093-0.5-0.179-1.004-0.261-1.508c-0.003-0.016-0.005-0.032-0.007-0.048
		c-0.017-0.108-0.034-0.217-0.051-0.326c-0.005-0.03-0.009-0.06-0.014-0.09c-0.014-0.095-0.029-0.192-0.043-0.287
		c-0.006-0.038-0.011-0.075-0.016-0.113c-0.012-0.086-0.025-0.172-0.037-0.259c-0.006-0.043-0.012-0.086-0.018-0.13
		c-0.012-0.084-0.023-0.169-0.035-0.254c-0.005-0.038-0.01-0.075-0.015-0.113c-0.012-0.088-0.023-0.176-0.034-0.265
		c-0.005-0.041-0.01-0.083-0.016-0.124c-0.011-0.084-0.021-0.169-0.031-0.254c-0.005-0.045-0.011-0.09-0.016-0.135
		c-0.009-0.078-0.019-0.156-0.028-0.235c-0.007-0.058-0.013-0.116-0.02-0.174c-0.007-0.066-0.015-0.131-0.022-0.198
		c-0.006-0.059-0.013-0.117-0.019-0.176c-0.007-0.07-0.015-0.14-0.022-0.211c-0.006-0.054-0.011-0.108-0.016-0.163
		c-0.008-0.075-0.015-0.15-0.022-0.226c-0.005-0.051-0.01-0.103-0.015-0.154c-0.007-0.072-0.013-0.144-0.02-0.217
		c-0.005-0.057-0.01-0.115-0.015-0.172c-0.006-0.074-0.013-0.148-0.019-0.223c-0.004-0.051-0.008-0.101-0.013-0.152
		c-0.006-0.073-0.012-0.146-0.017-0.22c-0.005-0.059-0.009-0.118-0.014-0.177c-0.005-0.068-0.01-0.135-0.015-0.204
		c-0.004-0.059-0.008-0.118-0.013-0.178c-0.005-0.07-0.009-0.14-0.014-0.212c-0.004-0.057-0.007-0.114-0.011-0.171
		c-0.004-0.068-0.008-0.137-0.012-0.206c-0.004-0.062-0.007-0.123-0.011-0.185c-0.004-0.069-0.008-0.138-0.011-0.208
		c-0.003-0.056-0.006-0.112-0.009-0.169c-0.004-0.075-0.007-0.151-0.011-0.228c-0.003-0.053-0.005-0.107-0.007-0.16
		c-0.003-0.068-0.006-0.136-0.008-0.204c-0.003-0.065-0.005-0.13-0.008-0.196c-0.002-0.056-0.004-0.111-0.006-0.167
		c-0.003-0.073-0.005-0.145-0.007-0.219c-0.002-0.068-0.004-0.136-0.006-0.204c-0.002-0.057-0.003-0.114-0.005-0.171
		c-0.002-0.077-0.003-0.154-0.005-0.232c-0.001-0.055-0.002-0.109-0.003-0.164c-0.001-0.074-0.002-0.147-0.004-0.222
		c-0.001-0.054-0.002-0.109-0.003-0.163c-0.001-0.116-0.003-0.232-0.003-0.348c0-0.012,0-0.025,0-0.037
		c-0.001-0.131-0.001-0.264-0.001-0.395C348.074,114.156,348.075,113.985,348.076,113.815z M422.287,174.493
		c-10.57-20.489-24.263-39.207-40.76-55.704c-9.232-9.231-19.264-17.665-29.88-25.128c8.507-23.772,31.259-40.825,57.919-40.825
		c33.906,0,61.492,27.585,61.492,61.491C471.056,143.872,450.11,168.617,422.287,174.493z"/>
	<path style="fill:#474D54;" d="M505.72,124.695c-4.093-0.678-7.972,2.08-8.658,6.176c-4.216,25.183-18.478,46.591-40.161,60.279
		c-2.389,1.509-4.479,3.351-6.21,5.473l-22.345,27.384c-0.024,0.029-0.047,0.057-0.071,0.086l-11.057,13.549
		c-4.469,4.427-6.615,5.462-7.629,5.542c-0.609,0.041-2.488-0.314-6.844-4.676c-0.129-0.128-0.229-0.225-0.346-0.336
		c-0.58-0.646-3.66-4.423-13.417-16.388c-4.936-6.053-11.68-14.323-20.924-25.652c-1.505-1.844-3.28-3.407-5.273-4.646
		c-35.245-21.925-40.462-58.457-40.667-60.061c-0.017-0.24-0.044-0.479-0.083-0.717c-4.287-25.821,2.947-52.066,19.848-72.005
		c16.91-19.949,41.583-31.391,67.692-31.391c6.276,0,13.547,0.92,14.921,1.238c0.153,0.036,0.31,0.068,0.465,0.095
		c14.276,2.473,27.506,8.376,39.32,17.551c0.376,0.293,0.688,0.531,0.929,0.712c16.435,13.245,27.28,31.078,31.364,51.576
		c0.811,4.074,4.771,6.717,8.845,5.906c4.074-0.812,6.718-4.772,5.906-8.845c-4.79-24.04-17.507-44.935-36.778-60.429l0,0
		c-0.116-0.094-0.235-0.185-0.354-0.272c-0.158-0.114-0.387-0.295-0.688-0.528c-13.728-10.66-29.132-17.541-45.786-20.457
		c-3.063-0.67-11.329-1.588-18.145-1.588c-30.538,0-59.391,13.379-79.165,36.705c-6.209,7.325-11.301,15.377-15.212,23.913
		c-28.788-12.986-59.597-19.563-91.702-19.563c-59.698,0-115.821,23.247-158.033,65.458C23.247,161.002,0,217.126,0,276.823
		c0,59.698,23.247,115.822,65.46,158.032c37.912,37.914,88.111,60.946,141.349,64.852c0.187,0.014,0.374,0.021,0.559,0.021
		c3.903,0,7.202-3.015,7.492-6.97c0.304-4.142-2.808-7.747-6.95-8.05c-49.64-3.643-96.453-25.124-131.815-60.487
		c-39.372-39.37-61.055-91.717-61.055-147.398s21.683-108.027,61.054-147.398S167.813,68.37,223.493,68.37
		c30.292,0,59.338,6.271,86.437,18.651c-4.276,14.658-5.308,30.255-2.802,45.731c0.613,8.662,10.12,48.121,47.714,71.505
		c0.584,0.363,1.11,0.829,1.563,1.386c9.242,11.324,15.985,19.593,20.92,25.646c13.776,16.894,13.776,16.894,14.699,17.773
		l0.083,0.08c4.276,4.281,10.054,9.087,17.347,9.087c0.436,0,0.877-0.017,1.325-0.052c6.849-0.544,12.38-5.205,17.337-10.162
		c0.179-0.179,0.349-0.367,0.509-0.565l1.087-1.332c1.485,10.128,2.235,20.404,2.235,30.703c0,55.68-21.683,108.027-61.054,147.397
		c-35.157,35.158-79.795,55.993-129.086,60.252c-4.138,0.357-7.202,4.001-6.845,8.139c0.338,3.918,3.623,6.872,7.484,6.872
		c0.217,0,0.436-0.009,0.656-0.027c52.111-4.503,101.272-27.445,138.426-64.601c42.213-42.212,65.46-98.335,65.46-158.033
		c0-15.526-1.591-31.006-4.733-46.073l20.089-24.619c0.704-0.862,1.574-1.624,2.588-2.264
		c25.354-16.007,42.032-41.048,46.965-70.514C512.581,129.257,509.816,125.381,505.72,124.695z M322.134,131.93
		c0-0.147-0.005-0.296-0.014-0.443C322.137,131.706,322.134,131.855,322.134,131.93z"/>
</g>
<g>
</g>
<g>
</g>
<g>
</g>
<g>
</g>
<g>
</g>
<g>
</g>
<g>
</g>
<g>
</g>
<g>
</g>
<g>
</g>
<g>
</g>
<g>
</g>
<g>
</g>
<g>
</g>
<g>
</g>
</svg>
