<?xml version="1.0" encoding="iso-8859-1"?>
<!-- Generator: Adobe Illustrator 19.0.0, SVG Export Plug-In . SVG Version: 6.00 Build 0)  -->
<svg version="1.1" id="Capa_1" xmlns="http://www.w3.org/2000/svg" xmlns:xlink="http://www.w3.org/1999/xlink" x="0px" y="0px"
	 viewBox="0 0 512 512" style="enable-background:new 0 0 512 512;" xml:space="preserve">
<path style="fill:#C2C7D0;" d="M88.882,310.056v145.582c0,6.265,5.079,11.344,11.344,11.344h28.012
	c5.45,0,10.131-3.876,11.146-9.232l27.993-147.694H88.882z"/>
<path style="fill:#ABB0B7;" d="M109.933,455.638V310.056h-21.05v145.582c0,6.265,5.079,11.344,11.344,11.344h21.05
	C115.012,466.983,109.933,461.904,109.933,455.638z"/>
<path style="fill:#FFFFFF;" d="M196.99,150.742c0.47,1.428,0.725,2.946,0.725,4.519v140.725c0,1.573-0.255,3.09-0.725,4.519
	c48.754,4.771,128.148,21.212,177.594,76.483c0-10.382,0-291.793,0-302.729C325.138,129.529,245.745,145.97,196.99,150.742z"/>
<path style="fill:#E4EAF8;" d="M196.99,300.505c6.893,0.675,14.399,1.583,22.345,2.801V147.941
	c-7.946,1.218-15.453,2.126-22.345,2.801c0.47,1.428,0.725,2.946,0.725,4.519v140.725
	C197.716,297.559,197.46,299.076,196.99,300.505z"/>
<path style="fill:#FFFFFF;" d="M64.232,171.987H22.569c-8.424,0-15.316,6.891-15.316,15.316v76.642
	c0,8.424,6.891,15.316,15.316,15.316h41.663V171.987z"/>
<path style="fill:#FEA82F;" d="M189.505,311.124H75.576c-6.6,0-12.001-5.4-12.001-12.001V152.123c0-6.6,5.4-12.001,12.001-12.001
	h113.93c6.6,0,12.001,5.4,12.001,12.001v147.001C201.506,305.724,196.106,311.124,189.505,311.124z"/>
<path style="fill:#E4EAF8;" d="M28.305,263.945v-76.643c0-8.424,6.891-15.316,15.315-15.316h-21.05
	c-8.424,0-15.316,6.891-15.316,15.316v76.642c0,8.424,6.892,15.316,15.316,15.316h21.05
	C35.196,279.259,28.305,272.368,28.305,263.945z"/>
<path style="fill:#FF8031;" d="M84.625,299.124V152.123c0-6.6,5.4-12.001,12.001-12.001h-21.05c-6.6,0-12.001,5.4-12.001,12.001
	v147.001c0,6.6,5.4,12.001,12.001,12.001h21.05C90.025,311.124,84.625,305.724,84.625,299.124z"/>
<path style="fill:#92E0C0;" d="M400.426,405.228h-17.42c-6.6,0-12.001-5.4-12.001-12.001V58.019c0-6.6,5.4-12.001,12.001-12.001
	h17.42c6.6,0,12.001,5.4,12.001,12.001v335.209C412.427,399.828,407.027,405.228,400.426,405.228z"/>
<path style="fill:#6DC296;" d="M392.056,393.227V58.019c0-5.982,4.44-10.964,10.186-11.848c-0.594-0.091-1.197-0.153-1.815-0.153
	h-17.42c-6.6,0-12.001,5.4-12.001,12.001v335.208c0,6.6,5.4,12.001,12.001,12.001h17.42c0.618,0,1.221-0.062,1.815-0.153
	C396.497,404.191,392.056,399.21,392.056,393.227z"/>
<path style="fill:#92E0C0;" d="M452.089,99.004h52.41c4.142,0,7.5-3.358,7.5-7.5s-3.358-7.5-7.5-7.5h-52.41
	c-4.142,0-7.5,3.358-7.5,7.5S447.947,99.004,452.089,99.004z"/>
<g>
	<path style="fill:#FF8031;" d="M158.645,175.83h-52.41c-4.142,0-7.5,3.358-7.5,7.5s3.358,7.5,7.5,7.5h52.41
		c4.142,0,7.5-3.358,7.5-7.5S162.787,175.83,158.645,175.83z"/>
	<path style="fill:#FF8031;" d="M158.645,217.623h-52.41c-4.142,0-7.5,3.358-7.5,7.5c0,4.142,3.358,7.5,7.5,7.5h52.41
		c4.142,0,7.5-3.358,7.5-7.5C166.145,220.981,162.787,217.623,158.645,217.623z"/>
	<path style="fill:#FF8031;" d="M158.645,259.415h-52.41c-4.142,0-7.5,3.358-7.5,7.5c0,4.142,3.358,7.5,7.5,7.5h52.41
		c4.142,0,7.5-3.358,7.5-7.5C166.145,262.773,162.787,259.415,158.645,259.415z"/>
</g>
<g>
	<path style="fill:#92E0C0;" d="M504.5,150.813h-52.41c-4.142,0-7.5,3.358-7.5,7.5c0,4.142,3.358,7.5,7.5,7.5h52.41
		c4.142,0,7.5-3.358,7.5-7.5C512,154.171,508.642,150.813,504.5,150.813z"/>
	<path style="fill:#92E0C0;" d="M504.5,217.623h-52.41c-4.142,0-7.5,3.358-7.5,7.5c0,4.142,3.358,7.5,7.5,7.5h52.41
		c4.142,0,7.5-3.358,7.5-7.5C512,220.981,508.642,217.623,504.5,217.623z"/>
	<path style="fill:#92E0C0;" d="M504.5,284.433h-52.41c-4.142,0-7.5,3.358-7.5,7.5s3.358,7.5,7.5,7.5h52.41
		c4.142,0,7.5-3.358,7.5-7.5S508.642,284.433,504.5,284.433z"/>
	<path style="fill:#92E0C0;" d="M504.5,351.243h-52.41c-4.142,0-7.5,3.358-7.5,7.5c0,4.142,3.358,7.5,7.5,7.5h52.41
		c4.142,0,7.5-3.358,7.5-7.5C512,354.601,508.642,351.243,504.5,351.243z"/>
</g>
<path style="fill:#474D54;" d="M400.673,38.018h-17.42c-10.771,0-19.501,8.731-19.501,19.501v13.42
	c-44.439,50.063-114.792,66.046-157.022,71.124c-3.35-5.926-9.7-9.942-16.979-9.942h-43.56c-4.107,0-7.688,3.164-7.811,7.269
	c-0.128,4.247,3.278,7.731,7.497,7.731h43.875c1.628,0,3.072,0.928,3.862,2.264c0.854,1.411,0.638,5.368,0.638,5.368v140.738
	c0.351,5.826-2.022,7.631-4.5,7.631H75.822c-2.475,0-4.5-2.025-4.5-4.5v-20.482V172.105v-20.482c0-2.475,2.025-4.5,4.5-4.5h34.739
	c4.107,0,7.688-3.164,7.811-7.269c0.128-4.247-3.278-7.731-7.497-7.731H75.822c-10.771,0-19.501,8.731-19.501,19.501v12.982H22.638
	C10.136,164.605,0,174.741,0,187.244v75.758c0,12.504,10.136,22.639,22.639,22.639H56.32v12.982
	c0,10.771,8.731,19.501,19.501,19.501h6.073v137.091c0,10.365,8.403,18.767,18.767,18.767h27.822
	c9.007,0,16.761-6.422,18.439-15.273l26.646-140.586h16.183c7.279,0,13.629-4.016,16.979-9.942
	c42.229,5.078,112.582,21.06,157.022,71.124v13.421c0,10.771,8.731,19.501,19.501,19.501h17.42c10.771,0,19.501-8.731,19.501-19.501
	V242.938c0-4.107-3.164-7.688-7.269-7.811c-4.247-0.128-7.731,3.278-7.731,7.497v150.104c0,2.475-2.025,4.5-4.5,4.5h-17.42
	c-2.475,0-4.5-2.025-4.5-4.5v-16.24V73.759v-16.24c0-2.475,2.025-4.5,4.5-4.5h17.42c2.475,0,4.5,2.025,4.5,4.5v149.788
	c0,4.107,3.164,7.688,7.269,7.811c4.247,0.128,7.731-3.278,7.731-7.497V57.519C420.174,46.748,411.443,38.018,400.673,38.018z
	 M22.639,270.64c-4.211,0-7.638-3.426-7.638-7.638v-75.757c0-4.212,3.426-7.638,7.638-7.638h33.682v91.035H22.639V270.64z
	 M132.185,455.916c-0.337,1.776-1.893,3.065-3.701,3.065h-27.822c-2.077,0-3.766-1.689-3.766-3.766v-137.09h61.405L132.185,455.916z
	 M209.254,293.372V156.874c55.545-6.718,113.46-25.726,154.498-64.414v265.325C322.701,319.086,264.772,300.087,209.254,293.372z"/>
<g>
</g>
<g>
</g>
<g>
</g>
<g>
</g>
<g>
</g>
<g>
</g>
<g>
</g>
<g>
</g>
<g>
</g>
<g>
</g>
<g>
</g>
<g>
</g>
<g>
</g>
<g>
</g>
<g>
</g>
</svg>
