<svg xmlns="http://www.w3.org/2000/svg" width="398" height="61.765" viewBox="0 0 398 61.765">
  <g id="logo" transform="translate(-55 -51.221)">
    <g id="Group_169" data-name="Group 169" transform="translate(408.227 60.659)">
      <g id="Group_168" data-name="Group 168" transform="translate(0)">
        <path id="Path_497" data-name="Path 497" d="M915.211,81.952V74.2h9.182v7.747Zm.229,32.67V83.864h8.723v30.759Z" transform="translate(-915.211 -74.205)"/>
        <path id="Path_498" data-name="Path 498" d="M975.212,118.566a15.852,15.852,0,0,1-3.5,5.079,16.57,16.57,0,0,1-5.279,3.443,17.2,17.2,0,0,1-6.657,1.262,17.394,17.394,0,0,1-6.6-1.234,16.1,16.1,0,0,1-5.251-3.386,15.734,15.734,0,0,1-3.472-5.05,15.406,15.406,0,0,1-1.262-6.226v-.115a15.415,15.415,0,0,1,1.262-6.226,15.871,15.871,0,0,1,3.5-5.079,16.6,16.6,0,0,1,5.28-3.443,17.207,17.207,0,0,1,6.656-1.263,17.4,17.4,0,0,1,6.6,1.234,16.129,16.129,0,0,1,5.251,3.386A15.768,15.768,0,0,1,975.212,106a15.438,15.438,0,0,1,1.263,6.226v.115A15.431,15.431,0,0,1,975.212,118.566Zm-7.345-6.226a9.111,9.111,0,0,0-.574-3.242,8.146,8.146,0,0,0-4.246-4.562,7.714,7.714,0,0,0-3.271-.689,8.094,8.094,0,0,0-3.357.66,7.423,7.423,0,0,0-2.5,1.808,7.947,7.947,0,0,0-1.578,2.669,9.515,9.515,0,0,0-.545,3.242v.115a9.1,9.1,0,0,0,.574,3.242,8.228,8.228,0,0,0,4.218,4.562,7.649,7.649,0,0,0,3.3.689,8.079,8.079,0,0,0,3.357-.66,7.4,7.4,0,0,0,2.5-1.808,7.964,7.964,0,0,0,1.578-2.668,9.546,9.546,0,0,0,.545-3.243Z" transform="translate(-931.702 -87.244)"/>
      </g>
    </g>
    <path id="Path_499" data-name="Path 499" d="M158.093,112.986H125.122V51.221h32.971ZM129.3,108.81h24.618V55.4H129.3Z" transform="translate(-41.328 0)" fill="#dc5113"/>
    <path id="Path_500" data-name="Path 500" d="M158.093,154.314H125.122V121.343h32.971ZM129.3,150.137h24.618V125.519H129.3Z" transform="translate(-41.328 -41.328)"/>
    <path id="Path_501" data-name="Path 501" d="M85.883,112.986h0A30.882,30.882,0,1,1,116.765,82.1,30.917,30.917,0,0,1,85.882,112.986Zm0-57.589A26.706,26.706,0,1,0,112.589,82.1,26.736,26.736,0,0,0,85.883,55.4Z" transform="translate(0 0)"/>
    <g id="Group_170" data-name="Group 170" transform="translate(125.031 60.224)">
      <path id="Path_502" data-name="Path 502" d="M259.214,114l-3.708-9.1H238.354l-3.709,9.1h-9.1l17.384-40.853h8.229L268.544,114ZM246.93,83.866,241.541,97.02h10.778Z" transform="translate(-225.547 -73.146)"/>
      <path id="Path_503" data-name="Path 503" d="M358.042,104.776a9.075,9.075,0,0,0-6.924,2.666q-2.52,2.666-2.521,8.286V127.2h-8.808V96.142H348.6V102.4a12.917,12.917,0,0,1,3.651-5.1,8.885,8.885,0,0,1,6.258-1.739v9.214Z" transform="translate(-292.878 -86.349)"/>
      <path id="Path_504" data-name="Path 504" d="M415.923,136.494V122.8a13.928,13.928,0,0,1-3.911,3.594,10.833,10.833,0,0,1-5.766,1.409,13.8,13.8,0,0,1-5.273-1.043,13.034,13.034,0,0,1-4.52-3.1,15.415,15.415,0,0,1-3.158-5.041,18.456,18.456,0,0,1-1.188-6.867v-.116a18.458,18.458,0,0,1,1.188-6.867,15.7,15.7,0,0,1,3.129-5.041,12.761,12.761,0,0,1,4.491-3.1,13.947,13.947,0,0,1,5.331-1.043,11.138,11.138,0,0,1,5.824,1.38,15.531,15.531,0,0,1,3.853,3.22v-4.02h8.808v40.331Zm.116-24.859a9.873,9.873,0,0,0-.608-3.529,8.736,8.736,0,0,0-1.623-2.742,7.183,7.183,0,0,0-8.229-1.75,7.3,7.3,0,0,0-2.4,1.75,8.5,8.5,0,0,0-1.651,2.713,9.817,9.817,0,0,0-.608,3.558v.116a9.88,9.88,0,0,0,.608,3.531,8.436,8.436,0,0,0,1.651,2.741,7.3,7.3,0,0,0,2.4,1.75,7.091,7.091,0,0,0,8.229-1.75,8.734,8.734,0,0,0,1.623-2.741,9.88,9.88,0,0,0,.608-3.531Z" transform="translate(-323.713 -86.37)"/>
      <path id="Path_505" data-name="Path 505" d="M509.081,128.054v-4.44a18.928,18.928,0,0,1-1.652,1.9,11.542,11.542,0,0,1-2,1.605A9.938,9.938,0,0,1,503,128.225a10.309,10.309,0,0,1-3.013.408q-5.042,0-7.794-3.071t-2.753-8.46V96.994h8.808v17.284a6.97,6.97,0,0,0,1.391,4.712,4.956,4.956,0,0,0,3.94,1.589,5.231,5.231,0,0,0,4.027-1.589,6.694,6.694,0,0,0,1.477-4.712V96.994h8.808v31.06Z" transform="translate(-381.076 -87.201)"/>
      <path id="Path_506" data-name="Path 506" d="M574.75,81.03V73.207h9.272V81.03Zm.232,33V82.975h8.808v31.06Z" transform="translate(-431.357 -73.182)"/>
      <path id="Path_507" data-name="Path 507" d="M626.873,116.689a13.872,13.872,0,0,1-3.883.492,14.472,14.472,0,0,1-3.68-.434,6.556,6.556,0,0,1-2.839-1.536,7.363,7.363,0,0,1-1.854-2.868,12.87,12.87,0,0,1-.666-4.491V93.134h-3.709V85.6h3.709V77.662h8.808V85.6h7.3l-1.086,7.533h-6.215V106.4q0,3.014,2.84,3.013a8.97,8.97,0,0,0,4.346-1.1v7.069A13.688,13.688,0,0,1,626.873,116.689Z" transform="translate(-452.275 -75.808)"/>
      <path id="Path_508" data-name="Path 508" d="M695.108,113.663q-.03.464-.087,1.1H673.407a7.417,7.417,0,0,0,2.637,4.549A7.891,7.891,0,0,0,681,120.848a9.821,9.821,0,0,0,3.94-.753,13.408,13.408,0,0,0,3.593-2.434l5.041,4.462a15.621,15.621,0,0,1-5.331,4.259,16.538,16.538,0,0,1-7.359,1.535,17.7,17.7,0,0,1-6.461-1.159,14.932,14.932,0,0,1-5.157-3.3,15.255,15.255,0,0,1-3.39-5.07,16.819,16.819,0,0,1-1.217-6.519v-.116a17.38,17.38,0,0,1,1.13-6.258,15.92,15.92,0,0,1,3.158-5.157,14.732,14.732,0,0,1,11.068-4.752,15.125,15.125,0,0,1,6.722,1.391,13.67,13.67,0,0,1,4.723,3.737,15.554,15.554,0,0,1,2.781,5.389,22.3,22.3,0,0,1,.9,6.345v.116Q695.137,113.2,695.108,113.663Zm-10.633-9.185a5.774,5.774,0,0,0-4.462-1.825,5.917,5.917,0,0,0-4.491,1.8,9.016,9.016,0,0,0-2.231,4.81h13.27A8.58,8.58,0,0,0,684.475,104.478Z" transform="translate(-484.346 -86.37)"/>
      <path id="Path_509" data-name="Path 509" d="M771.724,126.324a15.579,15.579,0,0,1-7.533,1.593,16.285,16.285,0,0,1-6.461-1.275,15.61,15.61,0,0,1-8.489-8.547,16.063,16.063,0,0,1-1.217-6.229v-.116a16.282,16.282,0,0,1,1.217-6.258,16.1,16.1,0,0,1,3.361-5.157,15.653,15.653,0,0,1,5.129-3.477,16.582,16.582,0,0,1,6.577-1.275,16.853,16.853,0,0,1,7.3,1.391,16.388,16.388,0,0,1,5.1,3.824l-5.389,5.795a14.419,14.419,0,0,0-3.1-2.492,7.8,7.8,0,0,0-3.97-.927,6.835,6.835,0,0,0-3.042.666,7.527,7.527,0,0,0-2.376,1.825,8.3,8.3,0,0,0-1.565,2.695,9.62,9.62,0,0,0-.55,3.274v.116a10.043,10.043,0,0,0,.55,3.361,7.971,7.971,0,0,0,1.594,2.724,7.54,7.54,0,0,0,2.492,1.825,7.665,7.665,0,0,0,3.245.666,7.935,7.935,0,0,0,3.854-.9,16.27,16.27,0,0,0,3.274-2.4l5.157,5.215A19.81,19.81,0,0,1,771.724,126.324Z" transform="translate(-533.48 -86.37)"/>
      <path id="Path_510" data-name="Path 510" d="M842.055,116.689a13.871,13.871,0,0,1-3.883.492,14.469,14.469,0,0,1-3.68-.434,6.557,6.557,0,0,1-2.839-1.536,7.368,7.368,0,0,1-1.854-2.868,12.88,12.88,0,0,1-.666-4.491V93.134h-3.709V85.6h3.709V77.662h8.808V85.6h7.3l-1.086,7.533h-6.216V106.4q0,3.014,2.84,3.013a8.973,8.973,0,0,0,4.346-1.1v7.069A13.7,13.7,0,0,1,842.055,116.689Z" transform="translate(-579.097 -75.808)"/>
      <path id="Path_511" data-name="Path 511" d="M883.718,154.691h0a4.636,4.636,0,0,1,4.636-4.636h.058a4.636,4.636,0,0,1,4.636,4.636h0a4.636,4.636,0,0,1-4.636,4.636h-.058A4.636,4.636,0,0,1,883.718,154.691Z" transform="translate(-613.454 -118.474)" fill="#dc5113"/>
    </g>
  </g>
</svg>
